<svg width="30" height="37" viewBox="0 0 30 37" fill="none" xmlns="http://www.w3.org/2000/svg">
<path d="M15.279 2.63157H14.4684C14.0354 2.63157 13.6843 2.28042 13.6843 1.84741V1.82104C13.6843 0.815283 12.8689 0 11.8632 0H11.8211C10.8153 0 10.0001 0.815283 10.0001 1.82104V1.84741C10.0001 2.28048 9.64892 2.63163 9.2159 2.63163H8.40537C7.54205 2.63163 6.84223 3.33145 6.84223 4.19477V4.22637C6.84223 5.0897 7.54205 5.78952 8.40537 5.78952H15.2791C16.1424 5.78952 16.8422 5.08964 16.8422 4.22637V4.19471C16.8422 3.33145 16.1423 2.63157 15.279 2.63157ZM11.8421 2.63157C11.4061 2.63157 11.0527 2.27807 11.0527 1.84211C11.0527 1.40608 11.4061 1.05259 11.8421 1.05259C12.2781 1.05259 12.6316 1.40608 12.6316 1.84211C12.6316 2.27813 12.2781 2.63157 11.8421 2.63157ZM15.3569 33.1579H2.10524C0.942546 33.1579 0 32.2154 0 31.0527V5.78946C0 4.62676 0.942546 3.68422 1.57892 3.68422H5.8443C5.80872 3.85904 5.78952 4.04024 5.78952 4.22649C5.78952 5.66876 6.96293 6.84217 8.40543 6.84217H15.2789C16.7215 6.84217 17.8948 5.66876 17.8948 4.19465C17.8948 4.01989 17.876 3.84952 17.8433 3.68422H21.0526C22.7418 3.68422 23.6843 4.62676 23.6843 5.78946V21.6056C23.5093 21.5947 23.3357 21.579 23.158 21.579C22.43 21.579 21.727 21.6816 21.0526 21.8561V9.47367H2.63157V30.5264H14.7635C14.8211 31.4515 15.0233 32.3369 15.3569 33.1579ZM23.158 23.158C19.3792 23.158 16.3159 26.2213 16.3159 30.0001C16.3159 33.7788 19.3791 36.8422 23.158 36.8422C26.9368 36.8422 30 33.7788 30 30.0001C30 26.2213 26.9367 23.158 23.158 23.158ZM27.6288 28.5943L23.4183 33.3311C23.2109 33.5645 22.922 33.6842 22.6311 33.6842C22.4 33.6842 22.1677 33.6087 21.9739 33.4535L19.3423 31.3482C18.8885 30.9853 18.8147 30.3228 19.1782 29.8689C19.541 29.4146 20.2038 29.3411 20.6576 29.7045L22.5086 31.1853L26.0554 27.1953C26.4411 26.761 27.1067 26.7214 27.5413 27.1079C27.976 27.4944 28.015 28.1595 27.6288 28.5943ZM18.4211 18.4211H10.0001C9.70936 18.4211 9.47374 18.1854 9.47374 17.8948V17.3684C9.47374 17.0777 9.70936 16.8421 10.0001 16.8421H18.4211C18.7117 16.8421 18.9475 17.0778 18.9475 17.3684V17.8948C18.9473 18.1854 18.7117 18.4211 18.4211 18.4211ZM18.4211 13.6842H10.0001C9.70936 13.6842 9.47374 13.4485 9.47374 13.1579V12.6316C9.47374 12.3409 9.70936 12.1052 10.0001 12.1052H18.4211C18.7117 12.1052 18.9475 12.3409 18.9475 12.6316V13.1579C18.9473 13.4486 18.7117 13.6842 18.4211 13.6842ZM15.7895 22.6316H10.0001C9.70936 22.6316 9.47374 22.3959 9.47374 22.1053V21.579C9.47374 21.2883 9.70936 21.0526 10.0001 21.0526H15.7895C16.0802 21.0526 16.3158 21.2883 16.3158 21.579V22.1053C16.3157 22.3959 16.0802 22.6316 15.7895 22.6316ZM14.7369 27.3685H10C9.7093 27.3685 9.47367 27.1328 9.47367 26.8422V26.3158C9.47367 26.0251 9.7093 25.7895 10 25.7895H14.7369C15.0276 25.7895 15.2632 26.0251 15.2632 26.3158V26.8422C15.2632 27.1328 15.0276 27.3685 14.7369 27.3685ZM8.46599 11.7378L6.52763 13.9185C6.43215 14.0259 6.29917 14.0811 6.16522 14.0811C6.05885 14.0811 5.95194 14.0463 5.86272 13.9748L4.6512 13.0056C4.44225 12.8386 4.40836 12.5336 4.57559 12.3247C4.74259 12.1155 5.0478 12.0816 5.25669 12.2489L6.10882 12.9306L7.74161 11.0937C7.9192 10.8938 8.22562 10.8755 8.42566 11.0535C8.62588 11.2314 8.64382 11.5376 8.46599 11.7378ZM8.46599 16.4205L6.52763 18.6011C6.43215 18.7085 6.29917 18.7636 6.16522 18.7636C6.05885 18.7636 5.95194 18.7289 5.86272 18.6574L4.6512 17.6882C4.44225 17.5212 4.40836 17.2162 4.57559 17.0072C4.74259 16.798 5.0478 16.7642 5.25669 16.9315L6.10882 17.6132L7.74161 15.7763C7.9192 15.5764 8.22562 15.5582 8.42566 15.7362C8.62588 15.9141 8.64382 16.2203 8.46599 16.4205ZM8.46599 20.8987L6.52763 23.0793C6.43215 23.1867 6.29917 23.2419 6.16522 23.2419C6.05885 23.2419 5.95194 23.2071 5.86272 23.1356L4.6512 22.1664C4.44225 21.9994 4.40836 21.6944 4.57559 21.4854C4.74259 21.2762 5.0478 21.2424 5.25669 21.4097L6.10882 22.0913L7.74161 20.2545C7.9192 20.0545 8.22562 20.0363 8.42566 20.2142C8.62588 20.3923 8.64382 20.6985 8.46599 20.8987ZM8.46599 25.4085L6.52763 27.5891C6.43215 27.6966 6.29917 27.7517 6.16522 27.7517C6.05885 27.7517 5.95194 27.7169 5.86272 27.6454L4.6512 26.6762C4.44225 26.5092 4.40836 26.2042 4.57559 25.9952C4.74259 25.786 5.0478 25.7522 5.25669 25.9195L6.10882 26.6011L7.74161 24.7643C7.9192 24.5643 8.22562 24.5461 8.42566 24.724C8.62588 24.9021 8.64382 25.2083 8.46599 25.4085Z" fill="#9D9D9F"/>
</svg>
