<svg width="20" height="20" viewBox="0 0 20 20" fill="none" xmlns="http://www.w3.org/2000/svg">
<g clip-path="url(#clip0)">
<path d="M9.99338 1.25082C14.8253 1.25457 18.7397 5.17465 18.736 10.0066C18.7322 14.8385 14.8122 18.7529 9.98025 18.7492C5.15084 18.7454 1.23764 14.8294 1.23764 10C1.24482 5.1684 5.16178 1.25457 9.99338 1.25082ZM9.99338 5.88693e-07C4.47037 0.00375059 -0.00380868 4.48355 -5.86796e-05 10.0066C0.00369132 15.5296 4.4835 20.0038 10.0065 20C15.5267 19.9962 19.9999 15.5202 19.9999 10C19.9981 4.47543 15.5179 -0.00187441 9.99338 5.88693e-07Z" fill="url(#paint0_linear)"/>
<path d="M9.19099 15.3185L4.45978 11.6329L5.80536 9.90617L8.71036 12.1695L13.5057 5.25L15.305 6.49707L9.19099 15.3185Z" fill="url(#paint1_linear)"/>
</g>
<defs>
<linearGradient id="paint0_linear" x1="0" y1="11" x2="20" y2="11" gradientUnits="userSpaceOnUse">
<stop stop-color="#B400FF"/>
<stop offset="1" stop-color="#FE0066"/>
</linearGradient>
<linearGradient id="paint1_linear" x1="-1.18611e-07" y1="11" x2="20" y2="10" gradientUnits="userSpaceOnUse">
<stop stop-color="#D900B3"/>
<stop offset="1" stop-color="#FE0066"/>
</linearGradient>
<clipPath id="clip0">
<rect width="20" height="20" fill="white"/>
</clipPath>
</defs>
</svg>
