<svg width="20" height="20" viewBox="0 0 20 20" fill="none" xmlns="http://www.w3.org/2000/svg">
<g clip-path="url(#clip0)">
<path d="M9.99338 1.25082C14.8253 1.25457 18.7397 5.17465 18.736 10.0066C18.7322 14.8385 14.8122 18.7529 9.98025 18.7492C5.15084 18.7454 1.23764 14.8294 1.23764 10C1.24482 5.1684 5.16178 1.25457 9.99338 1.25082ZM9.99338 5.88693e-07C4.47037 0.00375059 -0.00380868 4.48355 -5.86796e-05 10.0066C0.00369132 15.5296 4.4835 20.0038 10.0065 20C15.5267 19.9962 19.9999 15.5202 19.9999 10C19.9981 4.47543 15.5179 -0.00187441 9.99338 5.88693e-07Z" fill="url(#paint0_linear)"/>
<path d="M6.82105 5.27862L5.2735 6.82617L13.1692 14.7218L14.7167 13.1743L6.82105 5.27862Z" fill="url(#paint1_linear)"/>
<path d="M13.1689 5.27815L5.27325 13.1738L6.82081 14.7214L14.7165 6.82571L13.1689 5.27815Z" fill="url(#paint2_linear)"/>
</g>
<defs>
<linearGradient id="paint0_linear" x1="0" y1="10" x2="22.5" y2="10" gradientUnits="userSpaceOnUse">
<stop stop-color="#B400FF"/>
<stop offset="1" stop-color="#FE0066"/>
</linearGradient>
<linearGradient id="paint1_linear" x1="6.04728" y1="6.0524" x2="13.9429" y2="13.9481" gradientUnits="userSpaceOnUse">
<stop stop-color="#E70094"/>
<stop offset="1" stop-color="#FE0066"/>
</linearGradient>
<linearGradient id="paint2_linear" x1="9.2211" y1="9.22599" x2="10.7686" y2="10.7735" gradientUnits="userSpaceOnUse">
<stop stop-color="#E90092"/>
<stop offset="1" stop-color="#FE0066"/>
</linearGradient>
<clipPath id="clip0">
<rect width="20" height="20" fill="white"/>
</clipPath>
</defs>
</svg>
